<?xml version="1.0" standalone="no"?>
<!DOCTYPE svg PUBLIC "-//W3C//DTD SVG 20010904//EN"
 "http://www.w3.org/TR/2001/REC-SVG-20010904/DTD/svg10.dtd">
<svg version="1.0" xmlns="http://www.w3.org/2000/svg"
 width="997.000000pt" height="775.000000pt" viewBox="0 0 997.000000 775.000000"
 preserveAspectRatio="xMidYMid meet">
<metadata>
Created by potrace 1.16, written by Peter Selinger 2001-2019
</metadata>
<g transform="translate(0.000000,775.000000) scale(0.100000,-0.100000)"
fill="#000000" stroke="none">
<path d="M2828 7491 c-240 -9 -440 -19 -444 -24 -4 -4 -5 -10 -1 -13 3 -3 216
1 472 11 257 9 468 15 471 13 2 -3 35 -477 74 -1054 38 -577 72 -1070 74
-1097 l5 -47 -73 1 c-41 1 -79 -2 -85 -5 -23 -14 -10 -46 34 -83 l45 -37 0
-70 c0 -81 24 -141 73 -182 l31 -26 22 -326 c13 -180 23 -343 24 -362 l0 -35
-1172 -108 c-644 -59 -1173 -105 -1176 -103 -4 4 -222 3449 -219 3453 1 1 148
6 327 12 429 15 515 20 502 33 -8 8 -140 6 -431 -4 -231 -8 -422 -16 -424 -19
-3 -3 214 -3500 217 -3506 1 -1 71 5 156 13 85 8 625 57 1199 109 575 53 1046
97 1048 99 3 3 -32 557 -42 671 l-6 60 79 0 c71 0 84 3 130 32 l52 32 84 -40
c116 -54 194 -78 303 -91 168 -22 341 21 462 113 29 22 54 39 56 37 2 -2 13
-86 24 -188 12 -102 31 -246 42 -320 12 -74 21 -169 20 -210 -2 -69 -43 -576
-57 -697 l-6 -53 -242 0 c-132 -1 -470 -1 -751 -1 -280 1 -516 -3 -523 -8 -8
-5 -12 -17 -10 -27 3 -19 57 -19 2086 -22 1855 -2 2083 0 2088 13 4 8 1 22 -6
30 -16 19 -18 18 60 39 93 24 253 105 339 172 l74 57 -6 -119 c-9 -171 -38
-264 -122 -394 -23 -36 -63 -89 -88 -119 -33 -38 -43 -57 -35 -62 8 -5 -19
-37 -82 -95 -133 -123 -535 -527 -595 -598 -28 -32 -71 -88 -97 -125 l-48 -65
1 514 1 515 62 55 63 55 209 5 c207 5 209 5 212 28 l3 22 -2056 0 -2056 0 3
-22 c2 -15 11 -24 26 -26 15 -2 41 -27 72 -70 l50 -67 0 -972 0 -973 -1654 0
c-1451 0 -1655 -2 -1666 -15 -7 -8 -10 -22 -6 -30 5 -13 193 -15 1666 -15
l1660 0 2 -287 3 -288 25 0 c19 0 26 6 28 25 2 14 8 29 13 34 5 6 9 124 9 263
l0 253 518 -1 c489 0 516 -1 492 -17 -90 -62 -114 -107 -62 -117 15 -4 36 -8
46 -10 35 -7 238 16 439 50 109 18 201 35 203 38 3 2 -4 111 -16 242 -25 293
-25 267 4 259 31 -7 91 19 111 49 37 57 40 129 14 404 -41 445 -31 828 32
1181 l11 62 68 0 c67 0 69 -1 74 -27 21 -102 70 -507 91 -750 18 -219 45 -382
91 -560 53 -210 88 -271 164 -288 16 -4 30 -10 30 -14 0 -4 7 -61 15 -126 9
-66 17 -130 18 -141 2 -19 -21 -33 -148 -97 -83 -41 -174 -93 -203 -114 -55
-40 -75 -78 -51 -95 24 -16 284 -1 447 26 144 25 173 26 507 26 310 0 356 -2
361 -15 4 -9 3 -66 -1 -128 l-7 -113 -153 -73 c-187 -89 -273 -143 -281 -178
-4 -16 -2 -28 7 -34 22 -14 193 -10 329 6 113 14 362 53 366 58 1 1 6 96 10
212 l7 210 29 -62 28 -62 56 -7 c31 -3 80 -4 109 0 l53 6 22 -68 c12 -37 25
-79 30 -94 8 -26 5 -30 -98 -94 -440 -275 -357 -320 233 -127 110 36 202 67
203 69 2 1 -27 91 -64 199 l-67 197 54 49 54 48 388 1 387 0 -2 -182 -3 -183
-127 -75 c-101 -59 -128 -79 -128 -96 0 -42 12 -43 289 -34 144 5 268 7 275 4
17 -6 40 22 33 40 -3 7 -66 47 -141 87 l-136 74 0 183 0 182 705 0 705 0 0 24
c0 13 -7 27 -16 30 -9 3 -326 6 -705 6 l-689 0 0 300 0 300 27 43 c43 68 113
158 177 225 l60 63 127 -2 c69 -1 131 1 137 5 7 4 12 35 12 76 0 58 -3 71 -19
80 -12 6 -130 10 -313 10 l-293 0 26 23 c101 87 158 238 159 423 0 46 9 100
25 155 33 110 71 298 86 427 7 66 9 206 6 400 -5 298 -8 328 -52 503 -6 26 -5
27 55 37 129 23 220 85 267 180 24 50 28 71 31 167 3 95 0 120 -21 187 -41
129 -128 244 -321 428 -38 36 -94 104 -126 151 -32 47 -73 99 -92 114 -83 70
-232 113 -359 102 -83 -7 -130 -26 -172 -70 -17 -19 -48 -40 -69 -46 -51 -17
-122 -82 -147 -137 -36 -76 -38 -164 -7 -258 l27 -80 -17 -70 c-16 -66 -16
-70 1 -83 11 -7 26 -13 36 -13 12 0 18 -12 22 -49 8 -67 46 -138 102 -190 61
-56 102 -73 146 -61 56 16 55 13 -12 -57 -55 -57 -73 -86 -113 -178 -163 -376
-473 -625 -840 -676 -76 -11 -94 -10 -139 4 -76 24 -204 40 -262 32 -92 -11
-175 -83 -175 -152 l0 -33 -284 0 -285 0 -6 43 c-3 23 -21 161 -40 306 l-34
265 26 30 c36 43 72 122 79 176 6 43 9 47 67 80 35 20 102 75 153 125 78 77
98 105 141 192 69 137 87 220 81 376 -4 104 -9 134 -36 204 -43 117 -110 214
-228 330 -117 116 -200 176 -264 193 -25 6 -58 15 -75 20 -36 11 -65 16 -138
25 l-54 7 -41 76 c-56 107 -87 186 -131 337 l-38 129 20 28 c16 21 18 36 13
70 -12 85 -17 113 -25 133 -5 11 -13 46 -19 77 -21 112 -71 181 -164 227 -49
25 -74 31 -126 31 -36 0 -83 -5 -106 -12 -61 -18 -137 -98 -167 -176 -13 -34
-28 -62 -34 -62 -5 0 -81 9 -168 20 -87 12 -162 18 -167 15 -13 -8 -13 -62 -1
-69 5 -4 78 -15 162 -26 84 -12 155 -22 157 -24 1 -2 0 -15 -3 -29 -7 -25 -8
-25 -30 -11 -32 21 -89 15 -93 -10 -4 -16 0 -18 27 -13 20 4 35 1 45 -8 8 -8
19 -15 24 -15 5 0 -8 -55 -30 -122 -22 -68 -42 -131 -45 -140 -4 -15 1 -18 30
-18 49 0 55 -16 19 -53 -41 -42 -62 -105 -62 -182 0 -107 41 -188 120 -237
l49 -30 -62 -82 c-107 -141 -301 -444 -320 -499 -2 -7 -87 -7 -268 2 -224 11
-275 16 -339 36 -41 13 -114 31 -162 40 -78 16 -88 20 -88 39 1 40 -141 2171
-146 2194 -4 19 -10 22 -47 21 -23 -1 -239 -9 -479 -18z m2062 -881 c85 -11
159 -20 164 -20 5 0 -14 -24 -43 -52 -32 -33 -67 -84 -92 -135 -29 -59 -50
-88 -74 -103 -36 -22 -161 -61 -169 -52 -10 9 5 22 25 22 10 0 19 5 19 11 0 8
-17 10 -55 5 -30 -3 -55 -3 -55 2 0 4 15 53 33 108 19 54 42 129 52 167 10 37
23 67 29 67 6 0 81 -9 166 -20z m285 -135 c33 -32 33 -74 0 -105 -47 -44 1
-49 77 -7 21 11 39 19 41 16 2 -2 18 -56 36 -119 37 -130 86 -255 137 -349 19
-35 34 -65 32 -66 -10 -11 -163 -55 -218 -64 -103 -17 -275 -9 -297 13 -4 4 5
29 20 56 44 78 59 179 56 375 -3 218 -4 208 30 244 35 37 54 39 86 6z m679
-728 c84 -56 213 -175 281 -261 115 -143 165 -278 165 -446 0 -260 -141 -505
-370 -640 -65 -39 -68 -42 -74 -88 -19 -140 -130 -256 -215 -224 -23 8 -22 9
16 15 22 4 47 14 54 24 13 15 12 16 -6 8 -40 -17 -114 -18 -140 -1 -38 25 -30
36 28 36 28 1 66 7 82 15 38 17 21 18 -42 4 -63 -15 -113 6 -113 47 0 21 3 25
18 19 35 -16 69 -16 103 -2 l34 15 -65 -2 c-60 -1 -65 1 -68 22 -3 19 1 22 30
22 18 0 44 6 57 13 27 13 40 37 21 37 -7 0 -27 7 -46 16 -26 13 -32 20 -24 29
15 18 99 37 173 40 l61 2 94 184 c92 182 121 264 136 390 l5 47 -82 71 c-45
40 -134 108 -199 151 -146 100 -163 128 -163 265 0 78 4 98 27 145 49 100 120
115 222 47z m-1129 -112 c-26 -134 -38 -325 -31 -488 l7 -157 -32 -28 c-97
-83 -221 -136 -351 -148 -130 -11 -331 37 -474 115 l-56 30 -32 -24 c-35 -27
-97 -55 -120 -55 -12 0 -13 5 -4 31 12 36 -2 79 -27 79 -8 0 -15 7 -15 15 0
11 12 15 45 15 46 0 130 28 108 37 -7 2 -21 0 -32 -6 -31 -17 -101 -14 -108 5
-7 18 29 59 72 82 18 9 25 17 17 20 -17 5 -76 -36 -95 -66 -14 -24 -15 -24
-21 -5 -4 14 -27 28 -66 42 -56 21 -137 76 -170 116 -14 17 -11 18 85 12 68
-4 145 -18 240 -43 131 -35 157 -38 415 -54 250 -15 276 -15 288 -1 7 9 36 57
63 106 81 145 293 454 304 443 2 -2 -3 -35 -10 -73z m3316 -377 c40 -63 125
-156 192 -209 39 -31 52 -37 67 -29 29 15 81 12 102 -7 12 -11 18 -30 18 -60
0 -60 -40 -103 -97 -103 -33 0 -46 -7 -81 -43 -25 -26 -52 -68 -66 -103 -23
-57 -26 -60 -97 -97 -42 -21 -96 -40 -124 -43 -46 -6 -54 -3 -95 28 -42 32
-110 111 -110 127 0 4 17 16 38 25 73 33 113 86 66 86 -8 0 -13 -4 -10 -9 12
-18 -85 -83 -100 -68 -3 3 -8 27 -12 53 -6 43 -10 49 -39 56 -30 8 -32 11 -26
41 12 63 66 202 94 244 16 23 48 58 72 77 41 34 140 86 163 86 7 0 27 -24 45
-52z m-2173 -65 c134 -108 160 -137 156 -169 -20 -135 -41 -195 -129 -369 -75
-149 -95 -181 -114 -183 -13 -2 -28 2 -32 10 -12 18 -8 316 7 538 7 102 13
198 13 213 1 24 3 26 20 17 11 -5 46 -31 79 -57z m2294 -630 c8 -32 18 -65 22
-74 8 -19 -17 -29 -75 -29 -35 0 -37 2 -49 48 -7 26 -13 50 -14 54 -1 6 78 53
95 57 3 0 13 -25 21 -56z m-113 -74 c7 -22 19 -43 26 -46 8 -3 39 -1 70 4 51
9 56 8 78 -16 21 -22 25 -36 25 -96 0 -38 16 -181 36 -316 20 -136 36 -283 36
-328 0 -152 -48 -312 -132 -443 -89 -137 -243 -265 -347 -287 -53 -11 -54 -11
-142 36 -49 25 -89 49 -89 53 0 4 15 24 33 46 79 93 140 203 177 319 21 64 23
98 30 380 11 453 36 589 128 687 25 26 48 48 52 48 4 0 12 -18 19 -41z m262
-139 c52 -37 134 -68 204 -76 l55 -7 15 -51 c70 -239 71 -490 4 -758 -53 -209
-98 -297 -213 -416 -82 -85 -181 -150 -298 -196 -52 -21 -134 -68 -217 -125
-96 -65 -143 -91 -164 -91 l-30 0 24 26 c13 14 43 39 67 56 23 16 42 33 42 39
0 12 -72 -36 -124 -85 -45 -41 -49 -42 -66 -21 -11 13 -8 21 20 50 18 18 52
44 76 57 48 25 60 43 18 28 -32 -12 -79 -44 -116 -78 -26 -24 -48 -23 -48 2 0
19 68 79 108 95 27 11 44 31 27 31 -16 0 -74 -36 -102 -63 -29 -27 -33 -29
-33 -11 0 67 134 159 272 188 229 48 456 343 499 649 13 96 9 142 -37 463 -32
227 -41 324 -29 324 3 0 24 -13 46 -30z m-446 -95 c-16 -95 -35 -320 -35 -422
l0 -72 -59 -48 c-125 -101 -266 -168 -438 -210 -101 -24 -125 -26 -386 -28
-233 -2 -279 0 -289 13 -19 22 21 49 93 63 32 6 59 16 59 20 0 13 -78 0 -128
-22 -33 -14 -44 -25 -48 -49 -6 -28 -10 -30 -53 -32 -64 -2 -125 2 -133 10 -4
4 10 8 30 8 64 3 132 16 132 26 0 6 -16 8 -37 4 -110 -17 -121 -18 -127 -7 -4
6 -5 20 -1 31 5 15 11 17 28 12 32 -11 177 -2 177 10 0 7 -28 9 -80 6 -95 -6
-109 0 -75 32 22 21 29 23 46 11 12 -7 44 -16 72 -21 29 -5 60 -11 70 -15 9
-4 17 -3 17 3 0 12 -62 32 -100 32 -30 0 -57 16 -46 27 15 15 179 7 246 -13
178 -52 474 24 670 174 151 115 305 308 371 465 17 42 33 76 35 74 2 -1 -3
-39 -11 -82z m-2923 14 c173 -34 377 -35 537 -3 25 5 32 4 27 -5 -4 -7 0 -39
10 -72 17 -55 22 -62 70 -89 53 -31 109 -39 144 -20 23 12 19 31 60 -295 17
-132 33 -257 36 -277 l6 -38 -241 0 -241 0 -5 23 c-21 95 -77 327 -90 370 -13
45 -23 58 -63 86 l-47 32 42 -38 c37 -33 44 -48 64 -126 24 -92 22 -139 -11
-294 l-12 -53 -245 0 -245 0 6 53 c3 28 17 183 31 342 13 160 27 323 31 363 5
63 8 73 22 67 10 -4 61 -15 114 -26z m3695 -816 c-7 -158 -34 -326 -79 -496
-27 -104 -33 -118 -55 -123 -37 -10 -342 1 -353 12 -6 6 15 22 53 42 134 69
256 196 324 337 34 73 87 243 99 321 12 84 17 44 11 -93z m-3444 -178 c-2 -16
-15 -113 -29 -215 -41 -290 -43 -573 -9 -949 34 -378 27 -445 -51 -477 -31
-13 -42 -13 -93 1 -53 15 -62 15 -122 0 -162 -43 -259 -1 -289 126 -18 76 -7
295 29 549 36 262 56 441 76 710 8 113 18 224 21 248 l5 42 232 -2 232 -3 -2
-30z m661 3 c3 -18 15 -103 26 -188 28 -204 38 -250 114 -513 107 -371 143
-581 115 -680 -13 -47 -70 -112 -120 -138 -53 -27 -63 -25 -55 11 7 37 -3 38
-35 4 -33 -36 -117 -77 -160 -78 -81 -2 -119 59 -174 277 -46 181 -72 344 -90
560 -19 217 -71 647 -91 750 l-6 27 236 0 235 0 5 -32z m-1150 -15 c-2 -21
-13 -155 -25 -298 -18 -230 -44 -462 -94 -830 -17 -130 -19 -328 -4 -390 13
-53 66 -117 111 -135 18 -8 34 -14 35 -15 2 -1 9 -53 18 -116 8 -63 17 -126
20 -142 4 -26 0 -29 -92 -72 l-96 -45 -573 0 -574 0 0 970 0 969 83 71 82 70
557 0 556 0 -4 -37z m1846 25 c0 -7 32 -32 70 -56 l70 -43 0 -575 c0 -508 -2
-579 -16 -606 -85 -165 -161 -435 -179 -640 -4 -42 -9 -91 -10 -110 -2 -18 -4
-39 -4 -45 -1 -10 -48 -13 -201 -13 l-199 0 -5 33 c-3 17 -14 142 -26 276
l-20 244 44 47 c25 26 49 65 55 86 31 110 -5 319 -123 726 -67 232 -83 311
-115 551 l-18 137 339 0 c264 0 338 -3 338 -12z m2378 -1075 l-3 -28 -400 -2
-400 -2 55 29 55 29 348 1 348 0 -3 -27z m-713 -155 c27 -40 75 -117 107 -171
l58 -99 0 -294 0 -294 -399 0 -399 0 -20 43 c-11 23 -30 71 -42 107 -13 36
-28 76 -33 90 -6 14 -11 31 -13 39 -1 8 -9 35 -18 60 -8 25 -24 93 -36 150
-20 100 -20 105 -3 115 51 31 201 111 398 212 214 111 222 113 286 114 l66 0
48 -72z m164 -35 c0 -87 -2 -104 -12 -90 -7 10 -38 59 -69 108 l-57 89 69 0
70 0 -1 -107z m184 50 c-27 -32 -66 -80 -86 -107 l-37 -49 0 107 0 106 86 0
86 0 -49 -57z m-67 -1395 l76 -43 -148 -8 c-82 -4 -157 -6 -167 -5 -19 3 125
96 150 97 7 1 47 -18 89 -41z"/>
<path d="M2557 5996 c-114 -47 -216 -146 -269 -261 -19 -42 -23 -67 -23 -150
0 -88 3 -107 27 -157 29 -62 98 -142 146 -170 l29 -18 107 176 107 176 -11
162 c-16 246 -19 266 -38 266 -9 0 -43 -11 -75 -24z"/>
<path d="M2975 5739 c-44 -27 -110 -66 -147 -86 -38 -21 -68 -41 -68 -45 0 -4
21 -8 48 -8 26 -1 105 -11 175 -24 70 -13 130 -19 133 -15 13 22 -38 231 -55
228 -3 0 -42 -23 -86 -50z"/>
<path d="M1487 5053 c-15 -4 -17 -12 -12 -51 3 -26 12 -148 21 -272 9 -124 16
-225 17 -225 1 -1 31 1 66 3 l64 4 -7 76 c-3 43 -13 145 -21 227 -8 83 -15
171 -15 198 l0 47 -47 -1 c-27 -1 -56 -3 -66 -6z"/>
<path d="M1766 4758 c7 -51 13 -124 13 -162 l1 -69 46 7 c26 3 54 6 63 6 16 0
16 11 1 153 l-15 152 -60 3 -61 3 12 -93z"/>
</g>
</svg>
