<svg width="18" height="18" viewBox="0 0 18 18" fill="none" xmlns="http://www.w3.org/2000/svg">
<path fill-rule="evenodd" clip-rule="evenodd" d="M9.75174 0.249951C11.7517 0.374951 13.6267 1.37495 15.0017 2.74995C16.6267 4.49995 17.5017 6.62495 17.5017 9.12495C17.5017 11.125 16.7517 13 15.5017 14.625C14.2517 16.125 12.5017 17.25 10.5017 17.625C8.50174 18 6.50174 17.75 4.75174 16.75C3.00174 15.75 1.62674 14.25 0.876736 12.375C0.126736 10.5 0.00173632 8.37495 0.626736 6.49995C1.25174 4.49995 2.37674 2.87495 4.12674 1.74995C5.75174 0.624951 7.75174 0.124951 9.75174 0.249951ZM10.3767 16.375C12.0017 16 13.5017 15.125 14.6267 13.75C15.6267 12.375 16.2517 10.75 16.1267 8.99995C16.1267 6.99995 15.3767 4.99995 14.0017 3.62495C12.7517 2.37495 11.2517 1.62495 9.50174 1.49995C7.87674 1.37495 6.12674 1.74995 4.75174 2.74995C3.37674 3.74995 2.37674 5.12495 1.87674 6.87495C1.37674 8.49995 1.37674 10.25 2.12674 11.875C2.87674 13.5 4.00174 14.75 5.50174 15.625C7.00174 16.5 8.75174 16.75 10.3767 16.375ZM8.87672 8.37497L11.8767 5.24997L12.7517 6.12497L9.75172 9.24997L12.7517 12.375L11.8767 13.25L8.87672 10.125L5.87672 13.25L5.00172 12.375L8.00172 9.24997L5.00172 6.12497L5.87672 5.24997L8.87672 8.37497Z" fill="#797979"/>
</svg>
